<?xml version="1.0" encoding="utf-8"?>
<!-- Generator: Adobe Illustrator 17.1.0, SVG Export Plug-In . SVG Version: 6.00 Build 0)  -->
<!DOCTYPE svg PUBLIC "-//W3C//DTD SVG 1.1//EN" "http://www.w3.org/Graphics/SVG/1.1/DTD/svg11.dtd">
<svg version="1.1" id="Layer_1" xmlns="http://www.w3.org/2000/svg" xmlns:xlink="http://www.w3.org/1999/xlink" x="0px" y="0px"
	 viewBox="0 41 60 19" enable-background="new 0 41 60 19" xml:space="preserve">
<path fill="#FFFFFF" d="M22.3,54.2h1c0.1,0,0.2-0.1,0.2-0.2v-2.4h3.2c0.1,0,0.2-0.1,0.2-0.2v-0.9c0-0.1-0.1-0.2-0.2-0.2h-3.2v-2.2
	h4.2c0.1,0,0.2-0.1,0.2-0.2V47c0-0.1-0.1-0.2-0.2-0.2h-4.5c-0.6,0-1,0.5-1,1.1V54C22,54.1,22.1,54.2,22.3,54.2z"/>
<path fill="#FFFFFF" d="M30.9,54.2h1c0.1,0,0.2-0.1,0.2-0.2v-7c0-0.1-0.1-0.2-0.2-0.2h-1c-0.1,0-0.2,0.1-0.2,0.2v7
	C30.7,54.1,30.8,54.2,30.9,54.2z"/>
<path fill="#FFFFFF" d="M55.8,46.8h-1c-0.1,0-0.2,0.1-0.2,0.2v6.2c0,0.5,0.4,1,1,1h4.2c0.1,0,0.2-0.1,0.2-0.2v-0.9
	c0-0.1-0.1-0.2-0.2-0.2h-3.7V47C56.1,46.9,56,46.8,55.8,46.8z"/>
<path fill="#FFFFFF" d="M40.5,52l-3.3-5c-0.1-0.2-0.3-0.3-0.5-0.3h-1c-0.1,0-0.2,0.1-0.2,0.2v7c0,0.1,0.1,0.2,0.2,0.2h1
	c0.1,0,0.2-0.1,0.2-0.2V49l3.3,4.9c0.1,0.2,0.3,0.3,0.5,0.3h1c0.1,0,0.2-0.1,0.2-0.2v-7c0-0.1-0.1-0.2-0.2-0.2h-1
	c-0.1,0-0.2,0.1-0.2,0.2V52L40.5,52z"/>
<path fill="#FFFFFF" d="M52.1,53.9l-3.2-7c0-0.1-0.1-0.1-0.2-0.1H48c-0.1,0-0.2,0-0.2,0.1l-3.2,7c-0.1,0.1,0,0.3,0.2,0.3h1
	c0.1,0,0.2,0,0.2-0.1l0.7-1.6H50l0.7,1.6c0,0.1,0.1,0.1,0.2,0.1h1C52,54.2,52.1,54,52.1,53.9z M47.3,51.1l1-2.3l1,2.3H47.3z"/>
<path fill="#FFFFFF" d="M15,46.3l-0.4-0.4c-0.6-0.6-1.6-0.6-2.2,0c-0.6,0.6-0.6,1.4,0,2.1c0.6,0.6,1.6,1.6,1.6,1.6l1-1
	C15.6,47.8,15.6,46.9,15,46.3z"/>
<path fill="#FFFFFF" d="M11.5,57.3l0.4-0.4c0.6-0.6,0.6-1.6,0-2.2c-0.6-0.6-1.4-0.6-2.1,0c-0.6,0.6-1.6,1.6-1.6,1.6l1,1
	C9.9,57.9,10.9,57.9,11.5,57.3z"/>
<path fill="#FFFFFF" d="M13.1,55.6l1.9-1.9c0.6-0.6,0.6-1.6,0-2.2c0,0-2.7-2.7-3.2-3.2c-0.7-0.7-0.6-1.3-0.6-1.3l-0.4,0.4
	c-1.4,1.4-1.4,3.7,0,5.1c0.1,0.1,1.7,1.7,1.7,1.7C13.1,54.8,13.1,55.6,13.1,55.6z"/>
<path fill="#FFFFFF" d="M2.1,55.4L4,57.3c0.6,0.6,1.6,0.6,2.2,0c0,0,2.7-2.7,3.2-3.2c0.7-0.7,1.3-0.6,1.3-0.6l-0.4-0.4
	c-1.4-1.4-3.7-1.4-5.1,0c-0.1,0.1-1.7,1.7-1.7,1.7C2.9,55.4,2.1,55.4,2.1,55.4z"/>
<path fill="#FFFFFF" d="M0.5,53.8l0.4,0.4c0.6,0.6,1.6,0.6,2.2,0s0.6-1.4,0-2.1c-0.6-0.6-1.6-1.6-1.6-1.6l-1,1
	C-0.2,52.2-0.2,53.1,0.5,53.8z"/>
<path fill="#FFFFFF" d="M4,42.7l-0.4,0.4c-0.6,0.6-0.6,1.6,0,2.2C4.2,46,5,46,5.7,45.4c0.6-0.6,1.6-1.6,1.6-1.6l-1-1
	C5.6,42.1,4.6,42.1,4,42.7z"/>
<path fill="#FFFFFF" d="M2.4,44.4l-1.9,1.9c-0.6,0.6-0.6,1.6,0,2.2c0,0,2.7,2.7,3.2,3.2C4.4,52.4,4.3,53,4.3,53l0.4-0.4
	c1.4-1.4,1.4-3.7,0-5.1C4.6,47.4,3,45.8,3,45.8C2.4,45.2,2.3,44.4,2.4,44.4z"/>
<path fill="#FFFFFF" d="M13.4,44.6l-1.9-1.9c-0.6-0.6-1.6-0.6-2.2,0c0,0-2.7,2.7-3.2,3.2c-0.7,0.7-1.3,0.6-1.3,0.6l0.4,0.4
	c1.4,1.4,3.7,1.4,5.1,0c0.1-0.1,1.7-1.7,1.7-1.7C12.6,44.7,13.3,44.6,13.4,44.6z"/>
</svg>
